<svg width="28" height="30" viewBox="0 0 28 30" fill="none" xmlns="http://www.w3.org/2000/svg">
<path d="M4.00033 26.6666H9.00033V18.3333C9.00033 17.8611 9.16033 17.4655 9.48033 17.1466C9.80033 16.8278 10.1959 16.6678 10.667 16.6666H17.3337C17.8059 16.6666 18.202 16.8266 18.522 17.1466C18.842 17.4666 19.0014 17.8622 19.0003 18.3333V26.6666H24.0003V11.6666L14.0003 4.16665L4.00033 11.6666V26.6666ZM0.666992 26.6666V11.6666C0.666992 11.1389 0.785325 10.6389 1.02199 10.1666C1.25866 9.69443 1.58477 9.30554 2.00033 8.99998L12.0003 1.49998C12.5837 1.05554 13.2503 0.833313 14.0003 0.833313C14.7503 0.833313 15.417 1.05554 16.0003 1.49998L26.0003 8.99998C26.417 9.30554 26.7437 9.69443 26.9803 10.1666C27.217 10.6389 27.3348 11.1389 27.3337 11.6666V26.6666C27.3337 27.5833 27.007 28.3683 26.3537 29.0216C25.7003 29.675 24.9159 30.0011 24.0003 30H17.3337C16.8614 30 16.4659 29.84 16.147 29.52C15.8281 29.2 15.6681 28.8044 15.667 28.3333V20H12.3337V28.3333C12.3337 28.8055 12.1737 29.2016 11.8537 29.5216C11.5337 29.8416 11.1381 30.0011 10.667 30H4.00033C3.08366 30 2.29921 29.6739 1.64699 29.0216C0.99477 28.3694 0.668103 27.5844 0.666992 26.6666Z" fill="white"/>
</svg>
