<svg width="17" height="17" viewBox="0 0 17 17" fill="none" xmlns="http://www.w3.org/2000/svg">
<path d="M14.8384 12.0239L4.97379 2.15931C4.69717 1.88269 4.24868 1.88269 3.97206 2.15931L2.15892 3.97245C1.88229 4.24908 1.88229 4.69757 2.15892 4.97419L12.0235 14.8388C12.3001 15.1154 12.7486 15.1154 13.0252 14.8388L14.8384 13.0256C15.115 12.749 15.115 12.3005 14.8384 12.0239Z" stroke="#AA8453" stroke-width="0.5" stroke-linecap="round" stroke-linejoin="round"/>
<path d="M9.90604 7.09393L8.59916 8.4008M5.27708 2.46143L3.97021 3.7683M6.82125 4.00559L6.0952 4.73163M8.36541 5.54976L7.63583 6.2758M14.5385 11.7229L13.2317 13.0298M11.4502 8.63455L10.7242 9.36414M12.9944 10.1787L12.2683 10.9048M8.5 5.68434L9.78562 4.39872C9.93251 4.25241 10.1105 4.14105 10.3062 4.07288L13.4937 2.97143C13.5703 2.94516 13.6526 2.94091 13.7314 2.95914C13.8102 2.97738 13.8824 3.01737 13.9396 3.07457C13.9968 3.13178 14.0368 3.20389 14.055 3.2827C14.0732 3.36152 14.069 3.44387 14.0427 3.52038L12.9412 6.70788C12.8731 6.90368 12.7617 7.08162 12.6154 7.22851L11.3333 8.49997M8.5 11.3333L4.95833 14.875C4.89449 14.9391 4.8186 14.99 4.73503 15.0247C4.65146 15.0595 4.56185 15.0774 4.47135 15.0774C4.38085 15.0774 4.29124 15.0595 4.20767 15.0247C4.1241 14.99 4.04822 14.9391 3.98437 14.875L2.14271 13.0333C2.07856 12.9695 2.02766 12.8936 1.99293 12.81C1.9582 12.7264 1.94032 12.6368 1.94032 12.5463C1.94032 12.4558 1.9582 12.3662 1.99293 12.2826C2.02766 12.1991 2.07856 12.1232 2.14271 12.0593L5.68437 8.51768M2.96437 11.22L5.78 14.0356M9.63333 4.55101L12.449 7.36663" stroke="#AA8453" stroke-width="0.5" stroke-linecap="round" stroke-linejoin="round"/>
</svg>
