<svg width="15" height="15" viewBox="0 0 15 15" fill="none" xmlns="http://www.w3.org/2000/svg">
<path d="M6.5625 3.75H5.9375C5.76491 3.75 5.625 3.88991 5.625 4.0625V4.6875C5.625 4.86009 5.76491 5 5.9375 5H6.5625C6.73509 5 6.875 4.86009 6.875 4.6875V4.0625C6.875 3.88991 6.73509 3.75 6.5625 3.75Z" fill="#EED26E"/>
<path d="M9.0625 3.75H8.4375C8.26491 3.75 8.125 3.88991 8.125 4.0625V4.6875C8.125 4.86009 8.26491 5 8.4375 5H9.0625C9.23509 5 9.375 4.86009 9.375 4.6875V4.0625C9.375 3.88991 9.23509 3.75 9.0625 3.75Z" fill="#EED26E"/>
<path d="M6.5625 5.9375H5.9375C5.76491 5.9375 5.625 6.07741 5.625 6.25V6.875C5.625 7.04759 5.76491 7.1875 5.9375 7.1875H6.5625C6.73509 7.1875 6.875 7.04759 6.875 6.875V6.25C6.875 6.07741 6.73509 5.9375 6.5625 5.9375Z" fill="#EED26E"/>
<path d="M9.0625 5.9375H8.4375C8.26491 5.9375 8.125 6.07741 8.125 6.25V6.875C8.125 7.04759 8.26491 7.1875 8.4375 7.1875H9.0625C9.23509 7.1875 9.375 7.04759 9.375 6.875V6.25C9.375 6.07741 9.23509 5.9375 9.0625 5.9375Z" fill="#EED26E"/>
<path d="M6.5625 8.125H5.9375C5.76491 8.125 5.625 8.26491 5.625 8.4375V9.0625C5.625 9.23509 5.76491 9.375 5.9375 9.375H6.5625C6.73509 9.375 6.875 9.23509 6.875 9.0625V8.4375C6.875 8.26491 6.73509 8.125 6.5625 8.125Z" fill="#EED26E"/>
<path d="M9.0625 8.125H8.4375C8.26491 8.125 8.125 8.26491 8.125 8.4375V9.0625C8.125 9.23509 8.26491 9.375 8.4375 9.375H9.0625C9.23509 9.375 9.375 9.23509 9.375 9.0625V8.4375C9.375 8.26491 9.23509 8.125 9.0625 8.125Z" fill="#EED26E"/>
<path d="M11.4063 12.0312H11.0938V2.5C11.0921 2.37618 11.0422 2.25789 10.9547 2.17033C10.8671 2.08277 10.7488 2.03287 10.625 2.03125H4.375C4.25118 2.03287 4.13289 2.08277 4.04533 2.17033C3.95777 2.25789 3.90787 2.37618 3.90625 2.5V12.0312H3.59375C3.46943 12.0312 3.3502 12.0806 3.26229 12.1685C3.17439 12.2565 3.125 12.3757 3.125 12.5C3.125 12.6243 3.17439 12.7435 3.26229 12.8315C3.3502 12.9194 3.46943 12.9688 3.59375 12.9688H11.4063C11.5306 12.9688 11.6498 12.9194 11.7377 12.8315C11.8256 12.7435 11.875 12.6243 11.875 12.5C11.875 12.3757 11.8256 12.2565 11.7377 12.1685C11.6498 12.0806 11.5306 12.0312 11.4063 12.0312ZM10.1563 12.0312H6.875V10.625C6.875 10.5421 6.84208 10.4626 6.78347 10.404C6.72487 10.3454 6.64538 10.3125 6.5625 10.3125H5.9375C5.85462 10.3125 5.77513 10.3454 5.71653 10.404C5.65792 10.4626 5.625 10.5421 5.625 10.625V12.0312H4.84375V2.96875H10.1563V12.0312Z" fill="#EED26E"/>
</svg>
