<svg width="40" height="40" viewBox="0 0 40 40" fill="none" xmlns="http://www.w3.org/2000/svg">
<rect width="40" height="40" rx="5" fill="black" fill-opacity="0.8"/>
<path d="M12 14.5C11.7239 14.5 11.5 14.7239 11.5 15C11.5 15.2761 11.7239 15.5 12 15.5V14.5ZM28.3536 15.3536C28.5488 15.1583 28.5488 14.8417 28.3536 14.6464L25.1716 11.4645C24.9763 11.2692 24.6597 11.2692 24.4645 11.4645C24.2692 11.6597 24.2692 11.9763 24.4645 12.1716L27.2929 15L24.4645 17.8284C24.2692 18.0237 24.2692 18.3403 24.4645 18.5355C24.6597 18.7308 24.9763 18.7308 25.1716 18.5355L28.3536 15.3536ZM12 15.5H28V14.5H12V15.5Z" fill="white"/>
<path d="M28 22.5C28.2761 22.5 28.5 22.7239 28.5 23C28.5 23.2761 28.2761 23.5 28 23.5V22.5ZM11.6464 23.3536C11.4512 23.1583 11.4512 22.8417 11.6464 22.6464L14.8284 19.4645C15.0237 19.2692 15.3403 19.2692 15.5355 19.4645C15.7308 19.6597 15.7308 19.9763 15.5355 20.1716L12.7071 23L15.5355 25.8284C15.7308 26.0237 15.7308 26.3403 15.5355 26.5355C15.3403 26.7308 15.0237 26.7308 14.8284 26.5355L11.6464 23.3536ZM28 23.5H12V22.5H28V23.5Z" fill="white"/>
</svg>
