<svg width="17" height="17" viewBox="0 0 17 17" fill="none" xmlns="http://www.w3.org/2000/svg">
<path d="M12.5092 7.93333C12.3463 7.72083 12.1479 7.53667 11.9638 7.3525C11.4892 6.9275 10.9508 6.62292 10.4975 6.17667C9.44208 5.1425 9.20833 3.43542 9.88125 2.125C9.20833 2.28792 8.62042 2.65625 8.1175 3.06C6.28292 4.53333 5.56042 7.13292 6.42458 9.36417C6.45292 9.435 6.48125 9.50583 6.48125 9.59792C6.48125 9.75375 6.375 9.89542 6.23333 9.95208C6.07042 10.0229 5.90042 9.98042 5.76583 9.86708C5.72563 9.83341 5.69201 9.79258 5.66667 9.74667C4.86625 8.73375 4.73875 7.28167 5.27708 6.12C4.09417 7.08333 3.44958 8.7125 3.54167 10.2496C3.58417 10.6038 3.62667 10.9579 3.74708 11.3121C3.84625 11.7371 4.0375 12.1621 4.25 12.5375C5.015 13.7629 6.33958 14.6412 7.76333 14.8183C9.27917 15.0096 10.9013 14.7333 12.0629 13.685C13.3592 12.5092 13.8125 10.625 13.1467 9.01L13.0546 8.82583C12.9058 8.5 12.5092 7.93333 12.5092 7.93333ZM10.2708 12.3958C10.0725 12.5658 9.74667 12.75 9.49167 12.8208C8.69833 13.1042 7.905 12.7075 7.4375 12.24C8.28042 12.0417 8.78333 11.4183 8.93208 10.7879C9.0525 10.2212 8.82583 9.75375 8.73375 9.20833C8.64875 8.68417 8.66292 8.23792 8.85417 7.74917C8.98875 8.01833 9.13042 8.2875 9.30042 8.5C9.84583 9.20833 10.7029 9.52 10.8871 10.4833C10.9154 10.5825 10.9296 10.6817 10.9296 10.7879C10.9508 11.3687 10.6958 12.0062 10.2708 12.3958Z" fill="#AA8453"/>
</svg>
