<svg width="40" height="40" viewBox="0 0 40 40" fill="none" xmlns="http://www.w3.org/2000/svg">
<rect width="40" height="40" rx="5" fill="black" fill-opacity="0.8"/>
<path d="M12.24 20.25C11.8446 19.8572 11.5313 19.3897 11.3185 18.8747C11.1056 18.3596 10.9973 17.8073 11 17.25C11 16.1228 11.4478 15.0418 12.2448 14.2448C13.0418 13.4478 14.1228 13 15.25 13C16.83 13 18.21 13.86 18.94 15.14H20.06C20.4311 14.4891 20.9681 13.9481 21.6163 13.5722C22.2645 13.1963 23.0007 12.9989 23.75 13C24.8772 13 25.9582 13.4478 26.7552 14.2448C27.5522 15.0418 28 16.1228 28 17.25C28 18.42 27.5 19.5 26.76 20.25L19.5 27.5L12.24 20.25ZM27.46 20.96C28.41 20 29 18.7 29 17.25C29 15.8576 28.4469 14.5223 27.4623 13.5377C26.4777 12.5531 25.1424 12 23.75 12C22 12 20.45 12.85 19.5 14.17C19.0151 13.4965 18.3766 12.9483 17.6375 12.5709C16.8984 12.1936 16.0799 11.9978 15.25 12C13.8576 12 12.5223 12.5531 11.5377 13.5377C10.5531 14.5223 10 15.8576 10 17.25C10 18.7 10.59 20 11.54 20.96L19.5 28.92L27.46 20.96Z" fill="white"/>
</svg>
