<svg width="14" height="14" viewBox="0 0 14 14" fill="none" xmlns="http://www.w3.org/2000/svg">
<path d="M7.00001 6.70829C6.61323 6.70829 6.2423 6.55465 5.96881 6.28116C5.69532 6.00767 5.54167 5.63673 5.54167 5.24996C5.54167 4.86319 5.69532 4.49225 5.96881 4.21876C6.2423 3.94527 6.61323 3.79163 7.00001 3.79163C7.38678 3.79163 7.75771 3.94527 8.0312 4.21876C8.30469 4.49225 8.45834 4.86319 8.45834 5.24996C8.45834 5.44147 8.42062 5.63111 8.34733 5.80804C8.27404 5.98497 8.16662 6.14574 8.0312 6.28116C7.89578 6.41658 7.73502 6.524 7.55809 6.59728C7.38115 6.67057 7.19152 6.70829 7.00001 6.70829ZM7.00001 1.16663C5.91704 1.16663 4.87843 1.59683 4.11265 2.36261C3.34688 3.12838 2.91667 4.16699 2.91667 5.24996C2.91667 8.31246 7.00001 12.8333 7.00001 12.8333C7.00001 12.8333 11.0833 8.31246 11.0833 5.24996C11.0833 4.16699 10.6531 3.12838 9.88736 2.36261C9.12158 1.59683 8.08297 1.16663 7.00001 1.16663Z" fill="#AA8453"/>
</svg>
