<svg width="20" height="20" viewBox="0 0 20 20" fill="none" xmlns="http://www.w3.org/2000/svg">
<path d="M11.2583 2.61587C10.715 1.62837 9.285 1.62837 8.74084 2.61587C8.02524 3.91619 7.43534 5.28182 6.97917 6.6942C6.95766 6.74946 6.91981 6.79685 6.87068 6.83005C6.82155 6.86325 6.76346 6.88069 6.70417 6.88004C5.48164 6.91181 4.26309 7.03325 3.05834 7.24337C1.94417 7.43754 1.45334 8.7742 2.3 9.6017C2.40667 9.70615 2.51445 9.81004 2.62334 9.91337C3.43901 10.6857 4.30268 11.4058 5.20917 12.0692C5.25035 12.0965 5.28155 12.1365 5.29808 12.1831C5.31461 12.2297 5.31558 12.2804 5.30084 12.3275C4.8432 13.7006 4.5162 15.1138 4.32417 16.5484C4.16584 17.735 5.4225 18.4634 6.40334 17.96C7.59407 17.3498 8.73262 16.6427 9.8075 15.8459C9.86379 15.806 9.93105 15.7847 10 15.7847C10.069 15.7847 10.1362 15.806 10.1925 15.8459C11.2667 16.6436 12.4054 17.3508 13.5967 17.96C14.5775 18.4634 15.8342 17.735 15.6758 16.5484C15.4841 15.1139 15.1574 13.7006 14.7 12.3275C14.6853 12.2804 14.6862 12.2297 14.7028 12.1831C14.7193 12.1365 14.7505 12.0965 14.7917 12.0692C15.8187 11.3174 16.7907 10.4931 17.7 9.60254C18.5467 8.7742 18.0558 7.43754 16.9417 7.24337C15.7366 7.03321 14.5178 6.91177 13.295 6.88004C13.2358 6.88052 13.1779 6.863 13.129 6.82981C13.08 6.79662 13.0423 6.74933 13.0208 6.6942C12.5661 5.28128 11.9753 3.91551 11.2583 2.61587Z" fill="#FFDD65"/>
</svg>
