<svg width="40" height="40" viewBox="0 0 40 40" fill="none" xmlns="http://www.w3.org/2000/svg">
<rect width="40" height="40" rx="5" fill="black" fill-opacity="0.8"/>
<path d="M17.039 18H15.654C15.512 18 15.3933 17.952 15.298 17.856C15.2027 17.76 15.1547 17.641 15.154 17.499C15.1533 17.357 15.2013 17.2384 15.298 17.143C15.3947 17.0477 15.5133 17 15.654 17H17.039V15.616C17.039 15.474 17.087 15.355 17.183 15.259C17.2783 15.163 17.397 15.115 17.539 15.115C17.681 15.115 17.7997 15.163 17.895 15.259C17.9903 15.355 18.0383 15.4737 18.039 15.615V17H19.423C19.565 17 19.6837 17.048 19.779 17.144C19.8743 17.24 19.9223 17.359 19.923 17.501C19.9237 17.643 19.8757 17.7617 19.779 17.857C19.6823 17.9524 19.5637 18 19.423 18H18.039V19.385C18.039 19.5264 17.991 19.645 17.895 19.741C17.799 19.837 17.68 19.8847 17.538 19.884C17.396 19.8834 17.2773 19.8357 17.182 19.741C17.0867 19.6464 17.039 19.5274 17.039 19.384V18ZM17.539 23.23C15.937 23.23 14.5813 22.676 13.472 21.568C12.3627 20.4587 11.808 19.1037 11.808 17.503C11.808 15.9024 12.362 14.5467 13.47 13.436C14.578 12.3254 15.9327 11.7697 17.534 11.769C19.1353 11.769 20.4913 12.3237 21.602 13.433C22.7127 14.543 23.268 15.8987 23.268 17.5C23.268 18.1947 23.145 18.867 22.899 19.517C22.653 20.167 22.3297 20.723 21.929 21.185L27.838 27.092C27.9313 27.1854 27.9813 27.3004 27.988 27.437C27.994 27.5724 27.944 27.6934 27.838 27.8C27.7313 27.9067 27.6133 27.96 27.484 27.96C27.3547 27.96 27.2367 27.9067 27.13 27.8L21.222 21.892C20.722 22.318 20.147 22.6477 19.497 22.881C18.847 23.1144 18.1937 23.231 17.537 23.231M17.537 22.231C18.8637 22.231 19.984 21.7744 20.898 20.861C21.8113 19.9477 22.268 18.8274 22.268 17.5C22.268 16.1727 21.812 15.0527 20.9 14.14C19.988 13.2274 18.868 12.7707 17.54 12.77C16.2127 12.77 15.0923 13.2267 14.179 14.14C13.2657 15.0534 12.8087 16.1734 12.808 17.5C12.8073 18.8267 13.264 19.9467 14.178 20.86C15.092 21.7734 16.212 22.23 17.538 22.23" fill="white"/>
</svg>
