<svg width="35" height="35" viewBox="0 0 35 35" fill="none" xmlns="http://www.w3.org/2000/svg">
<path d="M25.3748 32.0833C19.4209 32.0756 13.713 29.707 9.50292 25.4969C5.29284 21.2868 2.92422 15.579 2.9165 9.62501C2.9165 7.84585 3.62327 6.13956 4.88133 4.8815C6.13938 3.62344 7.84567 2.91667 9.62483 2.91667C10.0016 2.91436 10.3776 2.94855 10.7478 3.01876C11.1051 3.07353 11.4566 3.16141 11.7978 3.28126C12.0373 3.3653 12.2507 3.51041 12.417 3.70224C12.5832 3.89407 12.6965 4.12597 12.7457 4.37501L14.7436 13.125C14.7974 13.3625 14.7909 13.6097 14.7247 13.8441C14.6585 14.0784 14.5346 14.2925 14.3644 14.4667C14.1748 14.6708 14.1602 14.6854 12.3665 15.6188C13.8019 18.7708 16.3225 21.3017 19.4686 22.75C20.4165 20.9417 20.4311 20.9271 20.6352 20.7375C20.8094 20.5673 21.0235 20.4434 21.2578 20.3772C21.4922 20.311 21.7394 20.3045 21.9769 20.3583L30.7269 22.3563C30.968 22.4122 31.1908 22.5285 31.3745 22.6944C31.5582 22.8602 31.6967 23.0701 31.7769 23.3042C31.9003 23.6502 31.993 24.0065 32.054 24.3688C32.1113 24.7354 32.1406 25.106 32.1415 25.4771C32.1146 27.2486 31.388 28.9376 30.1202 30.1753C28.8524 31.413 27.1465 32.0989 25.3748 32.0833ZM9.62483 5.83334C8.6204 5.83718 7.65821 6.23789 6.94797 6.94814C6.23772 7.65838 5.83701 8.62058 5.83317 9.62501C5.83703 14.8066 7.89712 19.7748 11.5611 23.4388C15.225 27.1027 20.1932 29.1628 25.3748 29.1667C26.3793 29.1628 27.3415 28.7621 28.0517 28.0519C28.7619 27.3416 29.1627 26.3794 29.1665 25.375V24.8938L22.3998 23.3333L21.9769 24.1354C21.3207 25.4042 20.8394 26.3229 19.6144 25.8271C17.1978 24.9621 15.0042 23.5696 13.193 21.7509C11.3818 19.9321 9.99849 17.7327 9.14358 15.3125C8.61859 14.175 9.61025 13.65 10.8644 12.9938L11.6665 12.6L10.1061 5.83334H9.62483Z" fill="white"/>
</svg>
