<svg width="20" height="20" viewBox="0 0 20 20" fill="none" xmlns="http://www.w3.org/2000/svg">
<path d="M6.66666 4.16663C6.24999 4.16663 5.83333 4.34163 5.50833 4.66663C5.18333 4.99163 4.99999 5.37496 4.99999 5.83329V8.33329C4.55833 8.33329 4.16666 8.49163 3.82499 8.82496C3.48333 9.15829 3.33333 9.55829 3.33333 9.99996V14.1666H4.44999L4.99999 15.8333H5.83333L6.40833 14.1666H13.6333L14.1667 15.8333H15L15.55 14.1666H16.6667V9.99996C16.6667 9.55829 16.5083 9.16663 16.175 8.82496C15.8417 8.48329 15.4417 8.33329 15 8.33329V5.83329C15 5.37496 14.8333 4.99996 14.4917 4.66663C14.15 4.33329 13.75 4.16663 13.3333 4.16663M6.66666 5.83329H9.16666V8.33329H6.66666M10.8333 5.83329H13.3333V8.33329H10.8333M4.99999 9.99996H15V12.5H4.99999V9.99996Z" fill="#AA8453"/>
</svg>
