<svg width="12" height="7" viewBox="0 0 12 7" fill="none" xmlns="http://www.w3.org/2000/svg">
<path d="M5.99999 6.975C5.86665 6.975 5.74165 6.95433 5.62499 6.913C5.50832 6.87167 5.39999 6.80067 5.29999 6.7L0.699987 2.1C0.516654 1.91667 0.424988 1.68333 0.424988 1.4C0.424988 1.11667 0.516654 0.883332 0.699987 0.699999C0.883321 0.516666 1.11665 0.424999 1.39999 0.424999C1.68332 0.424999 1.91665 0.516666 2.09999 0.699999L5.99999 4.6L9.89999 0.699999C10.0833 0.516666 10.3167 0.424999 10.6 0.424999C10.8833 0.424999 11.1167 0.516666 11.3 0.699999C11.4833 0.883332 11.575 1.11667 11.575 1.4C11.575 1.68333 11.4833 1.91667 11.3 2.1L6.69999 6.7C6.59999 6.8 6.49165 6.871 6.37499 6.913C6.25832 6.955 6.13332 6.97567 5.99999 6.975Z" fill="black"/>
</svg>
