<svg width="20" height="20" viewBox="0 0 20 20" fill="none" xmlns="http://www.w3.org/2000/svg">
<path d="M10.4667 17.35C10.3307 17.4477 10.1674 17.5002 10 17.5002C9.83256 17.5002 9.66934 17.4477 9.53333 17.35C5.50917 14.4817 1.23833 8.58167 5.55583 4.31833C6.74112 3.15237 8.33736 2.49927 10 2.5C11.6667 2.5 13.2658 3.15417 14.4442 4.3175C18.7617 8.58083 14.4908 14.48 10.4667 17.35Z" stroke="black" stroke-width="1.5" stroke-linecap="round" stroke-linejoin="round"/>
<path d="M10 9.99984C10.442 9.99984 10.866 9.82424 11.1785 9.51168C11.4911 9.19912 11.6667 8.7752 11.6667 8.33317C11.6667 7.89114 11.4911 7.46722 11.1785 7.15466C10.866 6.8421 10.442 6.6665 10 6.6665C9.55798 6.6665 9.13406 6.8421 8.8215 7.15466C8.50894 7.46722 8.33334 7.89114 8.33334 8.33317C8.33334 8.7752 8.50894 9.19912 8.8215 9.51168C9.13406 9.82424 9.55798 9.99984 10 9.99984Z" stroke="black" stroke-width="1.5" stroke-linecap="round" stroke-linejoin="round"/>
</svg>
