<svg width="19" height="19" viewBox="0 0 19 19" fill="none" xmlns="http://www.w3.org/2000/svg">
<path d="M2.05834 10.3576L4.79118 11.5538L12.6667 7.25745L7.91668 12.7991L14.725 15.8993C14.8414 15.9503 14.9685 15.9725 15.0953 15.964C15.2221 15.9556 15.345 15.9167 15.4537 15.8507C15.5623 15.7847 15.6535 15.6935 15.7194 15.5848C15.7854 15.4762 15.8242 15.3532 15.8326 15.2264L16.6242 3.35136C16.633 3.21392 16.6059 3.07654 16.5455 2.95276C16.4851 2.82898 16.3936 2.72305 16.2798 2.6454C16.166 2.56776 16.034 2.52106 15.8968 2.50992C15.7595 2.49878 15.6217 2.52358 15.4969 2.58186L2.03855 8.9152C1.90127 8.98033 1.78558 9.08352 1.70525 9.2125C1.62491 9.34148 1.58332 9.49082 1.5854 9.64276C1.58749 9.7947 1.63317 9.94284 1.71701 10.0696C1.80085 10.1963 1.91932 10.2963 2.05834 10.3576ZM6.33334 17.5491L10.1143 15.7156L6.33334 13.9518V17.5491Z" fill="white"/>
</svg>
