<svg width="17" height="17" viewBox="0 0 17 17" fill="none" xmlns="http://www.w3.org/2000/svg">
<path d="M8.20958 2.5883C7.71647 2.05132 7.04725 1.70883 6.32329 1.62293C5.59932 1.53703 4.86854 1.71341 4.26346 2.12009L4.13596 2.21076L3.90717 2.38217C3.59493 2.61627 3.33749 2.91561 3.15276 3.25937C2.96804 3.60312 2.86048 3.98302 2.83758 4.37259L2.83333 4.52984V14.875C2.83353 15.0556 2.90267 15.2292 3.0266 15.3605C3.15054 15.4918 3.31993 15.5708 3.50016 15.5814C3.68038 15.592 3.85785 15.5333 3.9963 15.4174C4.13474 15.3016 4.22372 15.1372 4.24504 14.9579L4.25 14.875V4.52984C4.25039 4.35318 4.28749 4.17853 4.35895 4.01696C4.4304 3.8554 4.53465 3.71045 4.66508 3.5913L4.75717 3.51551L4.98596 3.34409C5.24719 3.14779 5.56142 3.03458 5.88783 3.01917C6.21423 3.00376 6.53773 3.08686 6.81629 3.25767L6.92467 3.32992L6.38775 3.64017C5.75952 4.0028 5.29431 4.59257 5.08794 5.28797C4.88157 5.98337 4.94978 6.73144 5.2785 7.37805L5.35075 7.51051L5.70492 8.12392C5.79162 8.2742 5.93046 8.38742 6.0951 8.44213C6.25974 8.49683 6.43873 8.48921 6.59813 8.42071L6.6725 8.38317L12.8067 4.84151C12.9571 4.75479 13.0705 4.61583 13.1252 4.45103C13.1799 4.28623 13.1722 4.10707 13.1035 3.94759L13.0659 3.87392L12.7118 3.26051C12.349 2.6324 11.7592 2.16733 11.0638 1.9611C10.3684 1.75487 9.62041 1.82318 8.97388 2.15197L8.84142 2.2228L8.20958 2.5883ZM12.2188 10.9063C12.0561 11.0002 11.9374 11.1549 11.8887 11.3364C11.8401 11.5178 11.8656 11.7112 11.9595 11.8738L12.3137 12.4873C12.4083 12.6486 12.5628 12.766 12.7437 12.8138C12.9245 12.8616 13.1169 12.836 13.2789 12.7425C13.4409 12.6489 13.5593 12.4951 13.6083 12.3146C13.6573 12.1341 13.633 11.9415 13.5405 11.7789L13.1863 11.1655C13.0924 11.0028 12.9377 10.8841 12.7562 10.8355C12.5748 10.7869 12.3814 10.8123 12.2188 10.9063ZM10.6378 11.0012C10.548 10.8435 10.4011 10.7263 10.2275 10.6737C10.0538 10.6211 9.86659 10.6372 9.70443 10.7186C9.54227 10.8 9.41753 10.9405 9.35593 11.1112C9.29433 11.2818 9.30058 11.4696 9.37338 11.6358L9.41092 11.7095L9.76508 12.3229C9.85593 12.4784 10.0025 12.5934 10.1751 12.6446C10.3477 12.6958 10.5333 12.6794 10.6943 12.5986C10.8552 12.5179 10.9793 12.3789 11.0414 12.21C11.1036 12.041 11.099 11.8547 11.0288 11.689L10.9919 11.6146L10.6378 11.0012ZM13.3507 8.61692C13.188 8.71086 13.0693 8.86557 13.0207 9.04702C12.972 9.22848 12.9975 9.42182 13.0914 9.58451L13.4456 10.1979C13.4918 10.2791 13.5535 10.3504 13.6274 10.4076C13.7012 10.4649 13.7856 10.5069 13.8758 10.5314C13.9659 10.5559 14.06 10.5623 14.1527 10.5503C14.2453 10.5382 14.3346 10.508 14.4155 10.4613C14.4964 10.4145 14.5673 10.3523 14.624 10.2781C14.6808 10.2039 14.7223 10.1192 14.7462 10.0289C14.77 9.93857 14.7758 9.84442 14.7632 9.75187C14.7505 9.65931 14.7197 9.57018 14.6724 9.48959L14.3183 8.87617C14.2243 8.71349 14.0696 8.59478 13.8882 8.54616C13.7067 8.49754 13.5134 8.523 13.3507 8.61692ZM10.8021 8.45259C10.6394 8.54652 10.5207 8.70124 10.4721 8.88269C10.4235 9.06415 10.4489 9.25748 10.5428 9.42017L10.897 10.0336C10.9916 10.195 11.1462 10.3123 11.327 10.3602C11.5079 10.408 11.7003 10.3823 11.8622 10.2888C12.0242 10.1953 12.1426 10.0415 12.1917 9.86094C12.2407 9.68043 12.2163 9.48786 12.1238 9.32526L11.7697 8.71184C11.6757 8.54915 11.521 8.43045 11.3396 8.38183C11.1581 8.33321 10.9648 8.35866 10.8021 8.45259ZM9.22108 8.54751C9.13131 8.38983 8.98445 8.27261 8.81079 8.22004C8.63713 8.16746 8.44992 8.18352 8.28776 8.26492C8.1256 8.34632 8.00086 8.48684 7.93926 8.65751C7.87767 8.82818 7.88391 9.01597 7.95671 9.18217L7.99425 9.25584L8.34842 9.86926C8.43899 10.0254 8.58573 10.141 8.75867 10.1926C8.93162 10.2441 9.11773 10.2278 9.279 10.1468C9.44028 10.0658 9.56455 9.92626 9.62645 9.75673C9.68836 9.58721 9.68322 9.40045 9.61208 9.23459L9.57525 9.16092L9.22108 8.54751ZM11.934 6.16326C11.7713 6.25719 11.6526 6.4119 11.604 6.59336C11.5554 6.77481 11.5808 6.96815 11.6748 7.13084L12.0289 7.74426C12.0751 7.82546 12.1369 7.89674 12.2107 7.95397C12.2845 8.01121 12.3689 8.05327 12.4591 8.07775C12.5492 8.10222 12.6433 8.10862 12.736 8.09658C12.8286 8.08454 12.918 8.0543 12.9989 8.00759C13.0798 7.96088 13.1506 7.89863 13.2074 7.82443C13.2641 7.75022 13.3056 7.66552 13.3295 7.57521C13.3534 7.4849 13.3591 7.39076 13.3465 7.2982C13.3338 7.20565 13.303 7.11651 13.2558 7.03592L12.9016 6.42251C12.8077 6.25982 12.6529 6.14111 12.4715 6.09249C12.29 6.04388 12.0967 6.06933 11.934 6.16326Z" fill="#AA8453"/>
</svg>
